<?xml version="1.0" encoding="utf-8"?>
<!--
  - JADEx - Java Advanced Development Extension
  -
  - Copyright (C) 2026 Cheol Jeon <nieuwmijnleven@outlook.com>
  -
  - This program is free software; you can redistribute it and/or modify
  - it under the terms of the GNU General Public License version 2 only,
  - as published by the Free Software Foundation.
  -
  - Alternatively, this software may be used under a commercial license
  - from Cheol Jeon.
  -
  - This program is distributed in the hope that it will be useful,
  - but WITHOUT ANY WARRANTY; without even the implied warranty of
  - MERCHANTABILITY or FITNESS FOR A PARTICULAR PURPOSE.
  -
  - See the GNU General Public License version 2 for more details:
  - <https://www.gnu.org/licenses/old-licenses/gpl-2.0.html>.
  -
  - For commercial licensing, please contact <nieuwmijnleven@outlook.com>.
  -
  - Contributors to this project must sign a Contributor License Agreement (CLA)
  - granting Cheol Jeon the right to relicense their contributions under
  - a commercial license. See the CLA file in the project root for details.
  -->

<svg xmlns="http://www.w3.org/2000/svg" viewBox="0 0 40 40" width="40" height="40">
  <g transform="translate(2,2) scale(0.215)">
    <path fill="#FFFFFF" d="M114,167H1V1h167v166H114z"/>
    <path fill="#03AEB6" d="M 101.758 68.05 C 102.258 55.89 102.648 44.15 103.028 32.41 L 103.028 29.74 C 115.748 34.24 124.778 42.16 129.378 54.52 C 130.968 58.79 131.708 63.61 131.708 68.18 C 131.708 74.05 131.258 79.59 139.078 81.3 C 136.858 83.79 135.138 85.72 133.138 87.96 C 135.098 88.84 136.688 89.55 138.868 90.54 C 136.738 93.22 134.748 95.76 132.578 98.51 C 134.748 99.42 136.668 100.21 140.138 101.64 C 137.048 103.79 135.038 106.08 132.568 106.78 C 115.968 111.44 101.868 120.57 88.528 131.03 C 86.298 132.77 84.818 135.53 83.178 137.94 C 81.798 140 79.668 141.25 78.648 138.69 C 75.308 130.33 67.418 127.21 61.008 122.46 C 51.068 115.09 39.988 109.95 28.028 106.69 C 25.778 106.08 23.978 103.83 21.268 101.82 C 24.468 100.43 26.528 99.53 28.748 98.58 C 26.538 95.77 24.528 93.21 22.338 90.43 C 24.508 89.55 26.318 88.83 28.118 88.1 C 26.248 86.09 24.488 84.2 22.808 82.41 C 22.968 81.85 22.988 81.34 23.148 81.29 C 31.168 78.97 29.368 72.44 29.478 66.7 C 29.798 50.01 42.318 34.04 57.638 30.35 L 57.638 50.04 C 57.638 56.57 58.288 62.94 58.848 70.4 C 62.558 68.46 64.948 67.14 67.378 65.93 C 77.728 60.84 87.598 62.53 97.248 68.05 C 98.338 68.68 99.918 68.47 101.388 68.22 L 101.758 68.05 Z"/>
  </g>
</svg>